<?xml version="1.0" encoding="utf-8"?>
<!-- Generator: Adobe Illustrator 25.0.0, SVG Export Plug-In . SVG Version: 6.00 Build 0)  -->
<svg version="1.1" xmlns="http://www.w3.org/2000/svg" xmlns:xlink="http://www.w3.org/1999/xlink" x="0px" y="0px"
	 viewBox="0 0 500 500" style="enable-background:new 0 0 500 500;" xml:space="preserve">
<style type="text/css">
	.st0{display:none;}
	.st1{display:inline;fill:#333333;}
	.st2{fill:#E4D4B6;}
	.st3{fill:#C99071;}
	.st4{fill:#D9816B;}
	.st5{fill:#BED5EC;}
	.st6{fill:#8F9DD1;}
	.st7{fill:#402A32;}
	.st8{fill:#FFFFFF;}
	.st9{font-family:'Courier';}
	.st10{font-size:72px;}
</style>
<g id="Layer_13" class="st0">
	<rect class="st1" width="500" height="500"/>
</g>
<g id="frame">
	<path class="st2" d="M420.6,415.6c-9.6,0-17.5-7.8-17.5-17.5c0-9.6,7.8-17.5,17.5-17.5c0.7,0,1.3,0,2,0.1v-21.2
		c-0.7,0.1-1.3,0.1-2,0.1c-9.6,0-17.5-7.8-17.5-17.5c0-9.6,7.8-17.5,17.5-17.5c0.7,0,1.3,0,2,0.1v-21.2c-0.7,0.1-1.3,0.1-2,0.1
		c-9.6,0-17.5-7.8-17.5-17.5S411,269,420.6,269c0.7,0,1.3,0,2,0.1v-21.2c-5.6,0.6-11.4-1.4-15.4-6.1c-6.2-7.4-5.3-18.4,2.1-24.6
		c3.8-3.2,8.6-4.5,13.2-4v-21.2c-0.7,0.1-1.3,0.1-2,0.1c-9.6,0-17.5-7.8-17.5-17.5c0-9.6,7.8-17.5,17.5-17.5c0.7,0,1.3,0,2,0.1
		v-26.1h-20.6c0,9.6-7.8,17.5-17.5,17.5c-9.6,0-17.5-7.8-17.5-17.5h-22.3c0,9.6-7.8,17.5-17.5,17.5c-9.6,0-17.5-7.8-17.5-17.5h-22.3
		c0,9.6-7.8,17.5-17.5,17.5c-9.6,0-17.5-7.8-17.5-17.5h-22.3c0,9.6-7.8,17.5-17.5,17.5c-9.6,0-17.5-7.8-17.5-17.5h-22.3
		c0,9.6-7.8,17.5-17.5,17.5c-9.6,0-17.5-7.8-17.5-17.5h-22.3c0,9.6-7.8,17.5-17.5,17.5s-17.5-7.8-17.5-17.5H60.4v26
		c9.6,0,17.5,7.8,17.5,17.5c0,9.6-7.8,17.5-17.5,17.5v20.9c5,0,9.9,2.1,13.4,6.2c6.2,7.4,5.3,18.4-2.1,24.6
		c-3.3,2.8-7.3,4.1-11.3,4.1V269c9.6,0,17.5,7.8,17.5,17.5s-7.8,17.5-17.5,17.5v20.9c9.6,0,17.5,7.8,17.5,17.5
		c0,9.6-7.8,17.5-17.5,17.5v20.9c9.6,0,17.5,7.8,17.5,17.5c0,9.6-7.8,17.5-17.5,17.5v26h20.6c0-9.6,7.8-17.5,17.5-17.5
		s17.5,7.8,17.5,17.5h22.3c0-9.6,7.8-17.5,17.5-17.5c9.6,0,17.5,7.8,17.5,17.5h22.3c0-9.6,7.8-17.5,17.5-17.5
		c9.6,0,17.5,7.8,17.5,17.5h22.3c0-9.6,7.8-17.5,17.5-17.5c9.6,0,17.5,7.8,17.5,17.5h22.3c0-9.6,7.8-17.5,17.5-17.5
		c9.6,0,17.5,7.8,17.5,17.5h22.3c0-9.6,7.8-17.5,17.5-17.5c9.6,0,17.5,7.8,17.5,17.5h20.6v-26.1C422,415.5,421.3,415.6,420.6,415.6z
		"/>
	<path class="st3" d="M432.6,446.5h-30.6v-5c0-6.9-5.6-12.5-12.5-12.5c-6.9,0-12.5,5.6-12.5,12.5v5h-32.3v-5
		c0-6.9-5.6-12.5-12.5-12.5c-6.9,0-12.5,5.6-12.5,12.5v5h-32.3v-5c0-6.9-5.6-12.5-12.5-12.5c-6.9,0-12.5,5.6-12.5,12.5v5h-32.3v-5
		c0-6.9-5.6-12.5-12.5-12.5c-6.9,0-12.5,5.6-12.5,12.5v5h-32.3v-5c0-6.9-5.6-12.5-12.5-12.5c-6.9,0-12.5,5.6-12.5,12.5v5h-32.3v-5
		c0-6.9-5.6-12.5-12.5-12.5c-6.9,0-12.5,5.6-12.5,12.5v5H60.4v-36h5c6.9,0,12.5-5.6,12.5-12.5s-5.6-12.5-12.5-12.5h-5v-30.9h5
		c6.9,0,12.5-5.6,12.5-12.5c0-6.9-5.6-12.5-12.5-12.5h-5v-30.9h5c6.9,0,12.5-5.6,12.5-12.5S72.2,274,65.4,274h-5V243l5,0
		c0,0,0,0,0,0c2.9,0,5.8-1,8-2.9c2.5-2.1,4.1-5.2,4.4-8.5c0.3-3.3-0.7-6.5-2.9-9.1c-2.4-2.8-5.8-4.4-9.5-4.4l-5,0v-30.9h5
		c6.9,0,12.5-5.6,12.5-12.5c0-6.9-5.6-12.5-12.5-12.5h-5v-36h30.6v5c0,6.9,5.6,12.5,12.5,12.5c6.9,0,12.5-5.6,12.5-12.5v-5h32.3v5
		c0,6.9,5.6,12.5,12.5,12.5c6.9,0,12.5-5.6,12.5-12.5v-5h32.3v5c0,6.9,5.6,12.5,12.5,12.5c6.9,0,12.5-5.6,12.5-12.5v-5h32.3v5
		c0,6.9,5.6,12.5,12.5,12.5c6.9,0,12.5-5.6,12.5-12.5v-5h32.3v5c0,6.9,5.6,12.5,12.5,12.5c6.9,0,12.5-5.6,12.5-12.5v-5h32.3v5
		c0,6.9,5.6,12.5,12.5,12.5c6.9,0,12.5-5.6,12.5-12.5v-5h30.6V163l-5.6-0.6c-0.5-0.1-1-0.1-1.4-0.1c-6.9,0-12.5,5.6-12.5,12.5
		c0,6.9,5.6,12.5,12.5,12.5c0.4,0,0.9,0,1.4-0.1l5.6-0.6v32.4l-5.6-0.6c-3.5-0.4-6.8,0.6-9.5,2.8c-2.5,2.1-4.1,5.2-4.4,8.5
		c-0.3,3.3,0.7,6.5,2.9,9.1c2.7,3.2,6.8,4.8,11,4.3l5.6-0.6v32.4l-5.6-0.6c-0.5-0.1-1-0.1-1.4-0.1c-6.9,0-12.5,5.6-12.5,12.5
		s5.6,12.5,12.5,12.5c0.4,0,0.9,0,1.4-0.1l5.6-0.6v32.4l-5.6-0.6c-0.5-0.1-1-0.1-1.4-0.1c-6.9,0-12.5,5.6-12.5,12.5
		c0,6.9,5.6,12.5,12.5,12.5c0.4,0,0.9,0,1.4-0.1l5.6-0.6v32.4l-5.6-0.6c-0.5-0.1-1-0.1-1.4-0.1c-6.9,0-12.5,5.6-12.5,12.5
		s5.6,12.5,12.5,12.5c0.4,0,0.9,0,1.4-0.1l5.6-0.6V446.5z M411.5,436.5h11.1v-16.2c-11-1.5-19.5-10.9-19.5-22.3s8.5-20.8,19.5-22.3
		v-11.3c-11-1.5-19.5-10.9-19.5-22.3s8.5-20.8,19.5-22.3v-11.3c-11-1.5-19.5-10.9-19.5-22.3s8.5-20.8,19.5-22.3v-11.3
		c-5.5-0.7-10.5-3.5-14.2-7.8c-3.9-4.6-5.7-10.4-5.2-16.4c0.5-6,3.3-11.4,7.9-15.3c3.3-2.8,7.3-4.5,11.5-5.1V197
		c-11-1.5-19.5-10.9-19.5-22.3s8.5-20.8,19.5-22.3v-16.2h-11.1c-2.3,10-11.2,17.5-21.9,17.5s-19.6-7.5-21.9-17.5h-13.4
		c-2.3,10-11.2,17.5-21.9,17.5s-19.6-7.5-21.9-17.5H297c-2.3,10-11.2,17.5-21.9,17.5c-10.7,0-19.6-7.5-21.9-17.5h-13.4
		c-2.3,10-11.2,17.5-21.9,17.5s-19.6-7.5-21.9-17.5h-13.4c-2.3,10-11.2,17.5-21.9,17.5s-19.6-7.5-21.9-17.5h-13.4
		c-2.3,10-11.2,17.5-21.9,17.5s-19.6-7.5-21.9-17.5H70.4v16.5c10,2.3,17.5,11.2,17.5,21.9s-7.5,19.6-17.5,21.9v12
		c4.7,1.1,9,3.7,12.2,7.4c3.9,4.6,5.7,10.4,5.2,16.4s-3.3,11.4-7.9,15.3c-2.7,2.3-6,3.9-9.5,4.7v12c10,2.3,17.5,11.2,17.5,21.9
		s-7.5,19.6-17.5,21.9v12c10,2.3,17.5,11.2,17.5,21.9s-7.5,19.6-17.5,21.9v12c10,2.3,17.5,11.2,17.5,21.9s-7.5,19.6-17.5,21.9v16.5
		h11.1c2.3-10,11.2-17.5,21.9-17.5s19.6,7.5,21.9,17.5h13.4c2.3-10,11.2-17.5,21.9-17.5s19.6,7.5,21.9,17.5H196
		c2.3-10,11.2-17.5,21.9-17.5s19.6,7.5,21.9,17.5h13.4c2.3-10,11.2-17.5,21.9-17.5c10.7,0,19.6,7.5,21.9,17.5h13.4
		c2.3-10,11.2-17.5,21.9-17.5s19.6,7.5,21.9,17.5h13.4c2.3-10,11.2-17.5,21.9-17.5S409.2,426.6,411.5,436.5z"/>
</g>
<g id="red">
	<rect x="109.2" y="176.5" class="st4" width="272.5" height="223.2"/>
</g>
<g id="blue">
	<path class="st5" d="M128.7,210.3c-0.2,3.3-0.3,6.6-0.3,9.9c0,79,52.7,143.1,117.7,143.1s117.7-64.1,117.7-143.1
		c0-3.3-0.1-6.6-0.3-9.9H128.7z"/>
</g>
<g id="nose">
	<polygon class="st6" points="256.1,286 242.6,245 213,288.6 	"/>
</g>
<g id="mouth">
	<path class="st7" d="M243.8,373.2c-9.5,0-18.7-1.6-26.8-4.9c-5.1-2.1-7.6-7.9-5.5-13c2.1-5.1,7.9-7.6,13-5.5
		c15.8,6.4,38.3,3.7,57.3-6.8c16.7-9.3,27.9-23,30.5-37.7c0.3-1.5,0.5-3.1,0.7-4.7c0.7-5.5,5.7-9.4,11.1-8.7
		c5.5,0.7,9.4,5.7,8.7,11.1c-0.2,2-0.5,3.9-0.9,5.8c-3.7,20.6-18.5,39.4-40.5,51.6C276.3,368.9,259.5,373.2,243.8,373.2z"/>
</g>
<g id="Reye_x5F_white">
	<circle class="st8" cx="352.8" cy="213.7" r="46.6"/>
</g>
<g id="Reye_x5F_pupil">
	<circle class="st7" cx="346.8" cy="217.7" r="33.1"/>
</g>
<g id="Leye_x5F_white">
	<circle class="st8" cx="138.1" cy="213.2" r="46.6"/>
</g>
<g id="Leye_x5F_pupil">
	<circle class="st7" cx="144.8" cy="212.3" r="33.1"/>
</g>
<g id="Rbrow">
	<path class="st7" d="M397.6,172.1c-2.7,0-5.3-1.1-7.3-3.1c-8.6-9.1-16.5-13.1-46.6-18.8c-5.4-1-9-6.3-7.9-11.7
		c1-5.4,6.3-9,11.7-7.9c32.6,6.2,44.9,11.6,57.4,24.8c3.8,4,3.6,10.3-0.4,14.1C402.6,171.2,400.1,172.1,397.6,172.1z"/>
</g>
<g id="Lbrow">
	<path class="st7" d="M118.7,161.3c-4.3,0-8.3-2.8-9.6-7.2c-1.6-5.3,1.5-10.9,6.8-12.4c31.8-9.4,45.3-10.3,62.4-4.2
		c5.2,1.8,7.9,7.5,6.1,12.8s-7.6,7.9-12.8,6.1c-11.8-4.2-20.7-4.1-50.1,4.6C120.6,161.2,119.6,161.3,118.7,161.3z"/>
</g>
<g id="stampy_x5F_ai">
	<text transform="matrix(1 0 0 1 55.8697 74.1768)" class="st4 st9 st10">stampy.ai</text>
</g>
</svg>
