<?xml version="1.0" encoding="utf-8"?>
<!-- Generator: Adobe Illustrator 25.0.0, SVG Export Plug-In . SVG Version: 6.00 Build 0)  -->
<svg version="1.1" xmlns="http://www.w3.org/2000/svg" xmlns:xlink="http://www.w3.org/1999/xlink" x="0px" y="0px"
	 viewBox="0 0 1600 400" style="enable-background:new 0 0 1600 400;" xml:space="preserve">
<style type="text/css">
	.st0{opacity:0.3;}
	.st1{fill:#88CFC1;}
	.st2{fill:#8E9CCE;}
	.st3{fill:#ED7251;}
	.st4{fill:#FDEC58;}
	.st5{fill:#B2DED9;}
	.st6{fill:#FACBCA;}
	.st7{fill:#24B9A2;}
	.st8{fill:#E3D4B5;}
	.st9{fill:#D8806B;}
	.st10{fill:#80C9C2;}
	.st11{fill:#C78E70;}
	.st12{fill:#ED999A;}
	.st13{fill:#FDE939;}
	.st14{fill:#F8BF2C;}
	.st15{fill:#BDD5EB;}
	.st16{fill:#F47F20;}
	.st17{fill:#F5EA14;}
	.st18{display:none;}
	.st19{display:inline;fill:#333333;}
	.st20{fill:#E4D4B6;}
	.st21{fill:#C99071;}
	.st22{fill:#D9816B;}
	.st23{fill:#BED5EC;}
	.st24{fill:#8F9DD1;}
	.st25{fill:#402A32;}
	.st26{fill:#FFFFFF;}
	.st27{font-family:'Courier';}
	.st28{font-size:199.9434px;}
</style>
<g id="Layer_2">
	<g class="st0">
		<polygon class="st1" points="858.5,91.6 839.7,129.3 877.3,129.3 		"/>
		<polygon class="st2" points="1039.1,39 1058,1.3 1020.3,1.3 		"/>
		<circle class="st3" cx="813.4" cy="65.3" r="18.8"/>
		<polygon class="st4" points="948.8,46.5 930,84.1 967.6,84.1 		"/>
		<rect x="975.2" y="46.5" class="st5" width="18.8" height="37.6"/>
		<path class="st6" d="M994,1.3h-18.8V39H994c10.4,0,18.8-8.4,18.8-18.8C1012.8,9.8,1004.4,1.3,994,1.3z"/>
		<polygon class="st7" points="948.8,20.1 930,1.3 930,39 967.6,39 967.6,1.3 		"/>
		<polygon class="st8" points="903.7,1.3 884.9,39 922.5,39 		"/>
		<path class="st9" d="M813.4,39h18.8V1.3h-18.8c-10.4,0-18.8,8.4-18.8,18.8S803,39,813.4,39z"/>
		<rect x="930" y="91.6" class="st3" width="18.8" height="37.6"/>
		<path class="st10" d="M994,128.6h18.8V91H994c-10.4,0-18.8,8.4-18.8,18.8S983.6,128.6,994,128.6z"/>
		<polygon class="st11" points="1020.3,91 1020.3,128.6 1058,128.6 		"/>
		<polygon class="st12" points="1084.3,110.5 1065.5,91.6 1065.5,129.3 1103.1,129.3 1103.1,91.6 		"/>
		<rect x="1110.6" y="91.6" class="st13" width="37.6" height="37.6"/>
		<polygon class="st2" points="1155.8,91 1155.8,128.6 1193.4,128.6 		"/>
		<polygon class="st14" points="903.7,91 884.9,91 884.9,128.6 922.5,128.6 922.5,109.8 903.7,109.8 		"/>
		<polygon class="st15" points="858.5,39 877.3,39 877.3,1.3 839.7,1.3 839.7,20.1 858.5,20.1 		"/>
		<polygon class="st16" points="1219.8,129.3 1238.6,129.3 1238.6,91.6 1200.9,91.6 1200.9,110.5 1219.8,110.5 		"/>
	</g>
	<g class="st0">
		<polygon class="st1" points="605.1,66.4 567.4,47.6 567.4,85.2 		"/>
		<polygon class="st2" points="657.7,247.1 695.4,265.9 695.4,228.2 		"/>
		<circle class="st3" cx="631.4" cy="21.3" r="18.8"/>
		<polygon class="st4" points="650.2,156.7 612.6,137.9 612.6,175.6 		"/>
		
			<rect x="622" y="173.7" transform="matrix(-1.836970e-16 1 -1 -1.836970e-16 823.8896 -438.9082)" class="st5" width="18.8" height="37.6"/>
		<path class="st6" d="M695.4,201.9v-18.8h-37.6v18.8c0,10.4,8.4,18.8,18.8,18.8C686.9,220.7,695.4,212.3,695.4,201.9z"/>
		<polygon class="st7" points="676.6,156.7 695.4,137.9 657.7,137.9 657.7,175.6 695.4,175.6 		"/>
		<polygon class="st8" points="695.4,111.6 657.7,92.8 657.7,130.4 		"/>
		<path class="st9" d="M657.7,21.3v18.8h37.6V21.3c0-10.4-8.4-18.8-18.8-18.8S657.7,10.9,657.7,21.3z"/>
		
			<rect x="576.8" y="128.5" transform="matrix(-1.836970e-16 1 -1 -1.836970e-16 733.5798 -438.9082)" class="st3" width="18.8" height="37.6"/>
		<path class="st10" d="M568.1,201.9v18.8h37.6v-18.8c0-10.4-8.4-18.8-18.8-18.8S568.1,191.5,568.1,201.9z"/>
		<polygon class="st11" points="605.7,228.2 568.1,228.2 568.1,265.9 		"/>
		<polygon class="st12" points="586.2,292.2 605.1,273.4 567.4,273.4 567.4,311 605.1,311 		"/>
		
			<rect x="567.4" y="318.5" transform="matrix(-1.836970e-16 1 -1 -1.836970e-16 923.6068 -248.8813)" class="st17" width="37.6" height="37.6"/>
		<polygon class="st2" points="605.7,363.7 568.1,363.7 568.1,401.3 		"/>
		<polygon class="st14" points="605.7,111.6 605.7,92.8 568.1,92.8 568.1,130.4 586.9,130.4 586.9,111.6 		"/>
		<polygon class="st15" points="657.7,66.4 657.7,85.2 695.4,85.2 695.4,47.6 676.6,47.6 676.6,66.4 		"/>
	</g>
	<g class="st0">
		<polygon class="st1" points="1082.9,174.9 1101.8,137.3 1064.1,137.3 		"/>
		<polygon class="st2" points="902.3,227.6 883.5,265.2 921.1,265.2 		"/>
		<circle class="st3" cx="1128.1" cy="201.3" r="18.8"/>
		<polygon class="st4" points="992.6,220.1 1011.5,182.5 973.8,182.5 		"/>
		
			<rect x="947.5" y="182.5" transform="matrix(-1 -1.224647e-16 1.224647e-16 -1 1913.7814 402.5341)" class="st5" width="18.8" height="37.6"/>
		<path class="st6" d="M947.5,265.2h18.8v-37.6h-18.8c-10.4,0-18.8,8.4-18.8,18.8C928.7,256.8,937.1,265.2,947.5,265.2z"/>
		<polygon class="st7" points="992.6,246.4 1011.5,265.2 1011.5,227.6 973.8,227.6 973.8,265.2 		"/>
		<polygon class="st8" points="1037.8,265.2 1056.6,227.6 1019,227.6 		"/>
		<path class="st9" d="M1128.1,227.6h-18.8v37.6h18.8c10.4,0,18.8-8.4,18.8-18.8C1146.9,236,1138.5,227.6,1128.1,227.6z"/>
		
			<rect x="992.6" y="137.3" transform="matrix(-1 -1.224647e-16 1.224647e-16 -1 2004.0912 312.2243)" class="st3" width="18.8" height="37.6"/>
		<path class="st10" d="M947.5,137.9h-18.8v37.6h18.8c10.4,0,18.8-8.4,18.8-18.8C966.3,146.4,957.9,137.9,947.5,137.9z"/>
		<polygon class="st11" points="921.1,175.6 921.1,137.9 883.5,137.9 		"/>
		<polygon class="st12" points="857.2,156.1 876,174.9 876,137.3 838.4,137.3 838.4,174.9 		"/>
		
			<rect x="793.2" y="137.3" transform="matrix(-1 -1.224647e-16 1.224647e-16 -1 1624.0372 312.2243)" class="st17" width="37.6" height="37.6"/>
		<polygon class="st2" points="785.7,175.6 785.7,137.9 748,137.9 		"/>
		<polygon class="st14" points="1037.8,175.6 1056.6,175.6 1056.6,137.9 1019,137.9 1019,156.8 1037.8,156.8 		"/>
		<polygon class="st15" points="1082.9,227.6 1064.1,227.6 1064.1,265.2 1101.8,265.2 1101.8,246.4 1082.9,246.4 		"/>
		<polygon class="st16" points="721.7,137.3 702.9,137.3 702.9,174.9 740.5,174.9 740.5,156.1 721.7,156.1 		"/>
	</g>
	<g class="st0">
		<polygon class="st1" points="1244.8,336.7 1282.4,355.5 1282.4,317.9 		"/>
		<polygon class="st2" points="1192.1,156.1 1154.4,137.3 1154.4,174.9 		"/>
		<circle class="st3" cx="1218.4" cy="381.9" r="18.8"/>
		<polygon class="st4" points="1199.6,246.4 1237.2,265.2 1237.2,227.6 		"/>
		
			<rect x="1209" y="191.9" transform="matrix(6.123234e-17 -1 1 6.123234e-17 1007.7386 1429.0873)" class="st5" width="18.8" height="37.6"/>
		<path class="st6" d="M1154.4,201.3v18.8h37.6v-18.8c0-10.4-8.4-18.8-18.8-18.8C1162.9,182.5,1154.4,190.9,1154.4,201.3z"/>
		<polygon class="st7" points="1173.3,246.4 1154.4,265.2 1192.1,265.2 1192.1,227.6 1154.4,227.6 		"/>
		<polygon class="st8" points="1154.4,291.6 1192.1,310.4 1192.1,272.8 		"/>
		<path class="st9" d="M1192.1,381.9v-18.8h-37.6v18.8c0,10.4,8.4,18.8,18.8,18.8C1183.6,400.7,1192.1,392.3,1192.1,381.9z"/>
		
			<rect x="1254.2" y="237" transform="matrix(6.123234e-17 -1 1 6.123234e-17 1007.7386 1519.3971)" class="st3" width="18.8" height="37.6"/>
		<path class="st10" d="M1281.7,201.3v-18.8h-37.6v18.8c0,10.4,8.4,18.8,18.8,18.8C1273.3,220.1,1281.7,211.7,1281.7,201.3z"/>
		<polygon class="st11" points="1244.1,174.9 1281.7,174.9 1281.7,137.3 		"/>
		<polygon class="st12" points="1263.6,111 1244.8,129.8 1282.4,129.8 1282.4,92.1 1244.8,92.1 		"/>
		
			<rect x="1244.8" y="47" transform="matrix(6.123234e-17 -1 1 6.123234e-17 1197.7655 1329.3701)" class="st17" width="37.6" height="37.6"/>
		<polygon class="st2" points="1244.1,39.5 1281.7,39.5 1281.7,1.8 		"/>
		<polygon class="st14" points="1244.1,291.6 1244.1,310.4 1281.7,310.4 1281.7,272.8 1262.9,272.8 1262.9,291.6 		"/>
		<polygon class="st15" points="1192.1,336.7 1192.1,317.9 1154.4,317.9 1154.4,355.5 1173.3,355.5 1173.3,336.7 		"/>
	</g>
	<g class="st0">
		<polygon class="st1" points="477.1,293 514.7,311.8 514.7,274.2 		"/>
		<polygon class="st2" points="424.4,112.4 386.8,93.6 386.8,131.2 		"/>
		<polygon class="st4" points="432,202.7 469.6,221.5 469.6,183.9 		"/>
		
			<rect x="441.4" y="148.1" transform="matrix(6.123234e-17 -1 1 6.123234e-17 283.85 617.7084)" class="st5" width="18.8" height="37.6"/>
		<path class="st6" d="M386.8,157.5v18.8h37.6v-18.8c0-10.4-8.4-18.8-18.8-18.8C395.2,138.7,386.8,147.1,386.8,157.5z"/>
		<polygon class="st7" points="405.6,202.7 386.8,221.5 424.4,221.5 424.4,183.9 386.8,183.9 		"/>
		<polygon class="st8" points="386.8,247.8 424.4,266.6 424.4,229 		"/>
		
			<rect x="486.5" y="193.3" transform="matrix(6.123234e-17 -1 1 6.123234e-17 283.85 708.0182)" class="st3" width="18.8" height="37.6"/>
		<path class="st10" d="M514.1,157.5v-18.8h-37.6v18.8c0,10.4,8.4,18.8,18.8,18.8S514.1,167.9,514.1,157.5z"/>
		<polygon class="st11" points="476.5,131.2 514.1,131.2 514.1,93.6 		"/>
		<polygon class="st12" points="495.9,67.2 477.1,86 514.7,86 514.7,48.4 477.1,48.4 		"/>
		
			<rect x="477.1" y="3.2" transform="matrix(6.123234e-17 -1 1 6.123234e-17 473.877 517.9913)" class="st17" width="37.6" height="37.6"/>
		<polygon class="st14" points="476.5,247.8 476.5,266.6 514.1,266.6 514.1,229 495.3,229 495.3,247.8 		"/>
		<polygon class="st15" points="424.4,293 424.4,274.2 386.8,274.2 386.8,311.8 405.6,311.8 405.6,293 		"/>
	</g>
	<g class="st0">
		<polygon class="st1" points="721.7,84.6 740.5,47 702.9,47 		"/>
		<polygon class="st2" points="541.1,137.3 522.3,174.9 559.9,174.9 		"/>
		<circle class="st3" cx="766.9" cy="111" r="18.8"/>
		<polygon class="st4" points="631.4,129.8 650.2,92.1 612.6,92.1 		"/>
		
			<rect x="586.2" y="92.1" transform="matrix(-1 -1.224647e-16 1.224647e-16 -1 1191.3026 221.9144)" class="st5" width="18.8" height="37.6"/>
		<path class="st6" d="M586.2,174.9h18.8v-37.6h-18.8c-10.4,0-18.8,8.4-18.8,18.8C567.4,166.5,575.9,174.9,586.2,174.9z"/>
		<polygon class="st7" points="631.4,156.1 650.2,174.9 650.2,137.3 612.6,137.3 612.6,174.9 		"/>
		<polygon class="st8" points="676.6,174.9 695.4,137.3 657.7,137.3 		"/>
		<path class="st9" d="M766.9,137.3H748v37.6h18.8c10.4,0,18.8-8.4,18.8-18.8C785.7,145.7,777.3,137.3,766.9,137.3z"/>
		
			<rect x="631.4" y="47" transform="matrix(-1 -1.224647e-16 1.224647e-16 -1 1281.6124 131.6046)" class="st3" width="18.8" height="37.6"/>
		<path class="st10" d="M586.2,47.6h-18.8v37.6h18.8c10.4,0,18.8-8.4,18.8-18.8S596.6,47.6,586.2,47.6z"/>
		<polygon class="st11" points="559.9,85.3 559.9,47.6 522.3,47.6 		"/>
		<polygon class="st12" points="495.9,65.8 514.7,84.6 514.7,47 477.1,47 477.1,84.6 		"/>
		
			<rect x="432" y="47" transform="matrix(-1 -1.224647e-16 1.224647e-16 -1 901.5585 131.6046)" class="st17" width="37.6" height="37.6"/>
		<polygon class="st2" points="424.4,85.3 424.4,47.6 386.8,47.6 		"/>
		<polygon class="st14" points="676.6,85.3 695.4,85.3 695.4,47.6 657.7,47.6 657.7,66.4 676.6,66.4 		"/>
		<polygon class="st15" points="721.7,137.3 702.9,137.3 702.9,174.9 740.5,174.9 740.5,156.1 721.7,156.1 		"/>
		<polygon class="st16" points="360.5,47 341.7,47 341.7,84.6 379.3,84.6 379.3,65.8 360.5,65.8 		"/>
	</g>
	<g class="st0">
		<polygon class="st1" points="1489.3,39.5 1508.2,1.8 1470.5,1.8 		"/>
		<polygon class="st2" points="1308.7,92.1 1289.9,129.8 1327.5,129.8 		"/>
		<circle class="st3" cx="1534.5" cy="65.8" r="18.8"/>
		<polygon class="st4" points="1399,84.6 1417.8,47 1380.2,47 		"/>
		
			<rect x="1353.9" y="47" transform="matrix(-1 -1.224647e-16 1.224647e-16 -1 2726.5701 131.6046)" class="st5" width="18.8" height="37.6"/>
		<path class="st6" d="M1353.9,129.8h18.8V92.1h-18.8c-10.4,0-18.8,8.4-18.8,18.8C1335.1,121.3,1343.5,129.8,1353.9,129.8z"/>
		<polygon class="st7" points="1399,111 1417.8,129.8 1417.8,92.1 1380.2,92.1 1380.2,129.8 		"/>
		<polygon class="st8" points="1444.2,129.8 1463,92.1 1425.4,92.1 		"/>
		<path class="st9" d="M1534.5,92.1h-18.8v37.6h18.8c10.4,0,18.8-8.4,18.8-18.8S1544.9,92.1,1534.5,92.1z"/>
		
			<rect x="1399" y="1.8" transform="matrix(-1 -1.224647e-16 1.224647e-16 -1 2816.8799 41.2948)" class="st3" width="18.8" height="37.6"/>
		<path class="st10" d="M1353.9,2.5h-18.8v37.6h18.8c10.4,0,18.8-8.4,18.8-18.8S1364.3,2.5,1353.9,2.5z"/>
		<polygon class="st11" points="1327.5,40.1 1327.5,2.5 1289.9,2.5 		"/>
		<polygon class="st12" points="1263.6,20.6 1282.4,39.5 1282.4,1.8 1244.8,1.8 1244.8,39.5 		"/>
		
			<rect x="1199.6" y="1.8" transform="matrix(-1 -1.224647e-16 1.224647e-16 -1 2436.8259 41.2948)" class="st17" width="37.6" height="37.6"/>
		<polygon class="st2" points="1192.1,40.1 1192.1,2.5 1154.4,2.5 		"/>
		<polygon class="st14" points="1444.2,40.1 1463,40.1 1463,2.5 1425.4,2.5 1425.4,21.3 1444.2,21.3 		"/>
		<polygon class="st15" points="1489.3,92.1 1470.5,92.1 1470.5,129.8 1508.2,129.8 1508.2,111 1489.3,111 		"/>
		<polygon class="st16" points="1128.1,1.8 1109.3,1.8 1109.3,39.5 1146.9,39.5 1146.9,20.6 1128.1,20.6 		"/>
	</g>
	<g class="st0">
		<polygon class="st1" points="1263.6,227.6 1244.8,265.2 1282.4,265.2 		"/>
		<polygon class="st2" points="1444.2,174.9 1463,137.3 1425.4,137.3 		"/>
		<circle class="st3" cx="1218.4" cy="201.3" r="18.8"/>
		<polygon class="st4" points="1353.9,182.5 1335.1,220.1 1372.7,220.1 		"/>
		<rect x="1380.2" y="182.5" class="st5" width="18.8" height="37.6"/>
		<path class="st6" d="M1399,137.3h-18.8v37.6h18.8c10.4,0,18.8-8.4,18.8-18.8C1417.8,145.7,1409.4,137.3,1399,137.3z"/>
		<polygon class="st7" points="1353.9,156.1 1335.1,137.3 1335.1,174.9 1372.7,174.9 1372.7,137.3 		"/>
		<polygon class="st8" points="1308.7,137.3 1289.9,174.9 1327.5,174.9 		"/>
		<path class="st9" d="M1218.4,174.9h18.8v-37.6h-18.8c-10.4,0-18.8,8.4-18.8,18.8C1199.6,166.5,1208,174.9,1218.4,174.9z"/>
		<rect x="1335.1" y="227.6" class="st3" width="18.8" height="37.6"/>
		<path class="st10" d="M1399,264.6h18.8V227H1399c-10.4,0-18.8,8.4-18.8,18.8C1380.2,256.2,1388.6,264.6,1399,264.6z"/>
		<polygon class="st11" points="1425.4,227 1425.4,264.6 1463,264.6 		"/>
		<polygon class="st12" points="1489.3,246.4 1470.5,227.6 1470.5,265.2 1508.2,265.2 1508.2,227.6 		"/>
		<rect x="1515.7" y="227.6" class="st17" width="37.6" height="37.6"/>
		<polygon class="st2" points="1560.8,227 1560.8,264.6 1598.5,264.6 		"/>
		<polygon class="st14" points="1308.7,227 1289.9,227 1289.9,264.6 1327.5,264.6 1327.5,245.8 1308.7,245.8 		"/>
		<polygon class="st15" points="1263.6,174.9 1282.4,174.9 1282.4,137.3 1244.8,137.3 1244.8,156.1 1263.6,156.1 		"/>
	</g>
	<g class="st0">
		<polygon class="st2" points="1425.4,156.1 1463,174.9 1463,137.3 		"/>
		<polygon class="st4" points="1417.8,65.8 1380.2,47 1380.2,84.6 		"/>
		
			<rect x="1389.6" y="82.7" transform="matrix(-1.836970e-16 1 -1 -1.836970e-16 1500.5825 -1297.4827)" class="st5" width="18.8" height="37.6"/>
		<path class="st6" d="M1463,111V92.1h-37.6V111c0,10.4,8.4,18.8,18.8,18.8C1454.6,129.8,1463,121.3,1463,111z"/>
		<polygon class="st7" points="1444.2,65.8 1463,47 1425.4,47 1425.4,84.6 1463,84.6 		"/>
		<polygon class="st8" points="1463,20.6 1425.4,1.8 1425.4,39.5 		"/>
		
			<rect x="1344.5" y="37.6" transform="matrix(-1.836970e-16 1 -1 -1.836970e-16 1410.2727 -1297.4827)" class="st3" width="18.8" height="37.6"/>
		<path class="st10" d="M1335.7,111v18.8h37.6V111c0-10.4-8.4-18.8-18.8-18.8C1344.1,92.1,1335.7,100.6,1335.7,111z"/>
		<polygon class="st11" points="1373.3,137.3 1335.7,137.3 1335.7,174.9 		"/>
		<polygon class="st12" points="1353.9,201.3 1372.7,182.5 1335.1,182.5 1335.1,220.1 1372.7,220.1 		"/>
		
			<rect x="1335.1" y="227.6" transform="matrix(-1.836970e-16 1 -1 -1.836970e-16 1600.2997 -1107.4557)" class="st17" width="37.6" height="37.6"/>
		<polygon class="st2" points="1373.3,272.8 1335.7,272.8 1335.7,310.4 		"/>
		<polygon class="st14" points="1373.3,20.6 1373.3,1.8 1335.7,1.8 1335.7,39.5 1354.5,39.5 1354.5,20.6 		"/>
		<polygon class="st16" points="1335.1,336.7 1335.1,355.5 1372.7,355.5 1372.7,317.9 1353.9,317.9 1353.9,336.7 		"/>
	</g>
</g>
<g id="Layer_1">
	<g id="Layer_13" class="st18">
		<rect class="st19" width="500" height="500"/>
	</g>
	<g id="frame">
		<path class="st20" d="M282.4,341.8c-6.7,0-12.2-5.5-12.2-12.2s5.5-12.2,12.2-12.2c0.4,0,0.8,0,1.5,0v-15c-0.4,0-0.8,0-1.5,0
			c-6.7,0-12.2-5.5-12.2-12.2s5.5-12.2,12.2-12.2c0.4,0,0.8,0,1.5,0v-15c-0.4,0-0.8,0-1.5,0c-6.7,0-12.2-5.5-12.2-12.2
			s5.5-12.2,12.2-12.2c0.4,0,0.8,0,1.5,0v-15c-4,0.4-8-1.1-10.8-4.2c-4.4-5.3-3.8-12.9,1.5-17.3c2.7-2.3,6.1-3.2,9.3-2.7v-15
			c-0.4,0-0.8,0-1.5,0c-6.7,0-12.2-5.5-12.2-12.2c0-6.7,5.5-12.2,12.2-12.2c0.4,0,0.8,0,1.5,0v-18.3h-14.6c0,6.7-5.5,12.2-12.2,12.2
			c-6.7,0-12.2-5.5-12.2-12.2H229c0,6.7-5.5,12.2-12.2,12.2c-6.7,0-12.2-5.5-12.2-12.2h-15.8c0,6.7-5.5,12.2-12.2,12.2
			c-6.7,0-12.2-5.5-12.2-12.2h-15.8c0,6.7-5.5,12.2-12.2,12.2c-6.7,0-12.2-5.5-12.2-12.2h-15.8c0,6.7-5.5,12.2-12.2,12.2
			s-12.2-5.5-12.2-12.2H67.9c0,6.7-5.5,12.2-12.2,12.2s-12.2-5.5-12.2-12.2H28.8v18.3c6.7,0,12.2,5.5,12.2,12.2
			c0,6.7-5.5,12.2-12.2,12.2v14.8c3.6,0,7,1.5,9.5,4.4c4.4,5.3,3.8,12.9-1.5,17.3c-2.3,1.9-5.1,3-8,3v14.8c6.7,0,12.2,5.5,12.2,12.2
			S35.6,263,28.8,263v14.8c6.7,0,12.2,5.5,12.2,12.2c0,6.7-5.5,12.2-12.2,12.2V317c6.7,0,12.2,5.5,12.2,12.2s-5.5,12.2-12.2,12.2
			v18.3h14.6c0-6.7,5.5-12.2,12.2-12.2s12.2,5.5,12.2,12.2h15.8c0-6.7,5.5-12.2,12.2-12.2c6.7,0,12.2,5.5,12.2,12.2H124
			c0-6.7,5.5-12.2,12.2-12.2c6.7,0,12.2,5.5,12.2,12.2h15.8c0-6.7,5.5-12.2,12.2-12.2c6.7,0,12.2,5.5,12.2,12.2h15.8
			c0-6.7,5.5-12.2,12.2-12.2c6.7,0,12.2,5.5,12.2,12.2h15.8c0-6.7,5.5-12.2,12.2-12.2c6.7,0,12.2,5.5,12.2,12.2h14.6v-18.3
			C283.2,341.8,282.8,341.8,282.4,341.8z"/>
		<path class="st21" d="M290.8,363.6h-21.5V360c0-4.9-4-8.9-8.9-8.9s-8.9,4-8.9,8.9v3.6h-22.8V360c0-4.9-4-8.9-8.9-8.9
			c-4.9,0-8.9,4-8.9,8.9v3.6h-22.8V360c0-4.9-4-8.9-8.9-8.9c-4.9,0-8.9,4-8.9,8.9v3.6h-22.4V360c0-4.9-4-8.9-8.9-8.9
			c-4.9,0-8.9,4-8.9,8.9v3.6h-22.8V360c0-4.9-4-8.9-8.9-8.9c-4.9,0-8.9,4-8.9,8.9v3.6H67.4V360c0-4.9-4-8.9-8.9-8.9s-8.9,4-8.9,8.9
			v3.6H28.2v-25.3h3.6c4.9,0,8.9-4,8.9-8.9c0-4.9-4-8.9-8.9-8.9h-3.6v-21.7h3.6c4.9,0,8.9-4,8.9-8.9c0-4.9-4-8.9-8.9-8.9h-3.6v-21.7
			h3.6c4.9,0,8.9-4,8.9-8.9s-4-8.9-8.9-8.9h-3.6v-21.5h3.6l0,0c2.1,0,4-0.6,5.7-2.1c1.9-1.5,3-3.6,3.2-5.9c0.2-2.3-0.4-4.6-2.1-6.3
			c-1.7-1.9-4.2-3.2-6.7-3.2h-3.6v-21.9h3.6c4.9,0,8.9-4,8.9-8.9c0-4.9-4-8.9-8.9-8.9h-3.6v-25.3h21.5v3.6c0,4.9,4,8.9,8.9,8.9
			s8.9-4,8.9-8.9v-3.6h22.8v3.6c0,4.9,4,8.9,8.9,8.9c4.9,0,8.9-4,8.9-8.9v-3.6h22.8v3.6c0,4.9,4,8.9,8.9,8.9c4.9,0,8.9-4,8.9-8.9
			v-3.6h22.8v3.6c0,4.9,4,8.9,8.9,8.9c4.9,0,8.9-4,8.9-8.9v-3.6h22.4v3.6c0,4.9,4,8.9,8.9,8.9c4.9,0,8.9-4,8.9-8.9v-3.6h22.8v3.6
			c0,4.9,4,8.9,8.9,8.9s8.9-4,8.9-8.9v-3.6H291v25.9l-4-0.4c-0.4,0-0.6,0-1.1,0c-4.9,0-8.9,4-8.9,8.9s4,8.9,8.9,8.9
			c0.2,0,0.6,0,1.1,0l4-0.4v22.8l-4-0.4c-2.5-0.2-4.9,0.4-6.7,1.9c-1.9,1.5-3,3.6-3.2,5.9c-0.2,2.3,0.4,4.6,2.1,6.3
			c1.9,2.3,4.9,3.4,7.8,3.2l4-0.4v22.8l-4-0.4c-0.4,0-0.6,0-1.1,0c-4.9,0-8.9,4-8.9,8.9s4,8.9,8.9,8.9c0.2,0,0.6,0,1.1,0l4-0.4v22.8
			l-4-0.4c-0.4,0-0.6,0-1.1,0c-4.9,0-8.9,4-8.9,8.9c0,4.9,4,8.9,8.9,8.9c0.2,0,0.6,0,1.1,0l4-0.4v22.8l-4-0.4c-0.4,0-0.6,0-1.1,0
			c-4.9,0-8.9,4-8.9,8.9s4,8.9,8.9,8.9c0.2,0,0.6,0,1.1,0l4-0.4v24.9H290.8z M275.8,356.6h7.8v-11.4c-7.8-1.1-13.7-7.6-13.7-15.6
			s5.9-14.8,13.7-15.6v-8c-7.8-1.1-13.7-7.6-13.7-15.6c0-8,5.9-14.8,13.7-15.6v-8c-7.8-1.1-13.7-7.6-13.7-15.6s5.9-14.8,13.7-15.6
			v-8c-3.8-0.4-7.4-2.5-9.9-5.5c-2.7-3.2-4-7.4-3.6-11.6c0.4-4.2,2.3-8,5.5-10.8c2.3-1.9,5.1-3.2,8-3.6v-8
			c-7.8-1.1-13.7-7.6-13.7-15.6c0-8,5.9-14.8,13.7-15.6v-11.4h-7.8c-1.7,7-8,12.2-15.4,12.2c-7.6,0-13.9-5.3-15.4-12.2h-9.5
			c-1.7,7-8,12.2-15.4,12.2c-7.6,0-13.9-5.3-15.4-12.2h-9.5c-1.7,7-8,12.2-15.4,12.2c-7.6,0-13.9-5.3-15.4-12.2H155
			c-1.7,7-8,12.2-15.4,12.2c-7.6,0-13.9-5.3-15.4-12.2h-9.5c-1.7,7-8,12.2-15.4,12.2c-7.6,0-13.9-5.3-15.4-12.2h-9.5
			c-1.7,7-8,12.2-15.4,12.2c-7.6,0-13.9-5.3-15.4-12.2h-7.8v11.6c7,1.7,12.2,8,12.2,15.4c0,7.6-5.3,13.9-12.2,15.4v8.4
			c3.4,0.8,6.3,2.5,8.6,5.3c2.7,3.2,4,7.4,3.6,11.6c-0.4,4.2-2.3,8-5.5,10.8c-1.9,1.7-4.2,2.7-6.7,3.4v8.4c7,1.7,12.2,8,12.2,15.4
			s-5.3,13.9-12.2,15.4v8.4c7,1.7,12.2,8,12.2,15.4c0,7.4-5.3,13.9-12.2,15.4v8.4c7,1.7,12.2,8,12.2,15.4c0,7.4-5.3,13.9-12.2,15.4
			v11.6h7.8c1.7-7,8-12.2,15.4-12.2c7.6,0,13.9,5.3,15.4,12.2h9.5c1.7-7,8-12.2,15.4-12.2c7.6,0,13.9,5.3,15.4,12.2h9.5
			c1.7-7,8-12.2,15.4-12.2c7.6,0,13.9,5.3,15.4,12.2h9.5c1.7-7,8-12.2,15.4-12.2c7.6,0,13.9,5.3,15.4,12.2h9.5
			c1.7-7,8-12.2,15.4-12.2c7.6,0,13.9,5.3,15.4,12.2h9.5c1.7-7,8-12.2,15.4-12.2C268,344.2,274.3,349.4,275.8,356.6z"/>
	</g>
	<g id="red">
		<rect x="62.8" y="173.3" class="st22" width="192.1" height="157.3"/>
	</g>
	<g id="blue">
		<path class="st23" d="M76.5,196.9c-0.2,2.3-0.2,4.6-0.2,7.2c0,55.7,37.1,100.8,82.9,100.8s82.9-45.1,82.9-100.8c0-2.3,0-4.6-0.2-7
			H76.5V196.9z"/>
	</g>
	<g id="nose">
		<polygon class="st24" points="166.4,250.5 156.9,221.4 136,252.2 		"/>
	</g>
	<g id="mouth">
		<path class="st25" d="M157.7,311.9c-6.7,0-13.1-1.1-19-3.4c-3.6-1.5-5.3-5.5-4-9.1c1.5-3.6,5.5-5.3,9.1-4
			c11.2,4.4,27,2.5,40.5-4.9c11.8-6.5,19.6-16.2,21.5-26.6c0.2-1.1,0.4-2.1,0.4-3.4c0.4-3.8,4-6.5,7.8-6.1c3.8,0.4,6.5,4,6.1,7.8
			c-0.2,1.5-0.4,2.7-0.6,4c-2.5,14.6-13.1,27.8-28.5,36.5C180.5,308.9,168.7,311.9,157.7,311.9z"/>
	</g>
	<g id="Reye_x5F_white">
		
			<ellipse transform="matrix(0.1602 -0.9871 0.9871 0.1602 2.247386e-02 398.9711)" class="st26" cx="234.5" cy="199.5" rx="32.9" ry="32.9"/>
	</g>
	<g id="Reye_x5F_pupil">
		
			<ellipse transform="matrix(0.1602 -0.9871 0.9871 0.1602 -6.2267 397.1099)" class="st25" cx="230.3" cy="202.2" rx="23.4" ry="23.4"/>
	</g>
	<g id="Leye_x5F_white">
		<circle class="st26" cx="83" cy="199.1" r="32.9"/>
	</g>
	<g id="Leye_x5F_pupil">
		<circle class="st25" cx="87.9" cy="198.4" r="23.4"/>
	</g>
	<g id="Rbrow">
		<path class="st25" d="M266.1,170.2c-1.9,0-3.8-0.8-5.1-2.1c-6.1-6.3-11.6-9.3-32.9-13.3c-3.8-0.6-6.3-4.4-5.7-8.2
			c0.6-3.8,4.4-6.3,8.2-5.7c23,4.4,31.6,8.2,40.5,17.5c2.7,2.7,2.5,7.4-0.2,9.9C269.5,169.5,267.8,170.2,266.1,170.2z"/>
	</g>
	<g id="Lbrow">
		<path class="st25" d="M69.3,162.6c-3,0-5.9-1.9-6.7-5.1c-1.1-3.8,1.1-7.6,4.9-8.9c22.4-6.5,31.8-7.2,44.1-3
			c3.6,1.3,5.7,5.3,4.2,9.1c-1.3,3.6-5.3,5.7-9.1,4.2c-8.2-3-14.6-3-35.2,3.2C70.8,162.4,70,162.6,69.3,162.6z"/>
	</g>
	<g id="stampy_x5F_ai">
		<text transform="matrix(1 0 0 1 311.1328 321.9988)" class="st22 st27 st28">stampy.ai</text>
	</g>
</g>
</svg>
