<?xml version="1.0" encoding="utf-8"?>
<!-- Generator: Adobe Illustrator 25.0.0, SVG Export Plug-In . SVG Version: 6.00 Build 0)  -->
<svg version="1.1" id="Layer_2" xmlns="http://www.w3.org/2000/svg" xmlns:xlink="http://www.w3.org/1999/xlink" x="0px" y="0px"
	 viewBox="0 0 512 512" style="enable-background:new 0 0 512 512;" xml:space="preserve">
<style type="text/css">
	.st0{fill:#E4D4B6;}
	.st1{fill:#C99071;}
	.st2{fill:#D9816B;}
	.st3{fill:#BED5EC;}
	.st4{fill:#8F9DD1;}
	.st5{fill:#402A32;}
	.st6{fill:#FFFFFF;}
</style>
<path class="st0" d="M495.5,462.5c-13.3,0-24-12.5-24-27.9c0-15.4,10.8-27.9,24-27.9c0.9,0,1.8,0.1,2.7,0.2V373
	c-0.9,0.1-1.8,0.2-2.7,0.2c-13.3,0-24-12.5-24-27.9c0-15.4,10.8-27.9,24-27.9c0.9,0,1.8,0.1,2.7,0.2v-33.8c-0.9,0.1-1.8,0.2-2.7,0.2
	c-13.3,0-24-12.5-24-27.9s10.8-27.9,24-27.9c0.9,0,1.8,0.1,2.7,0.2v-33.8c-7.7,1-15.7-2.3-21.1-9.7c-8.5-11.8-7.2-29.4,2.9-39.3
	c5.3-5.2,11.9-7.2,18.2-6.4v-33.8c-0.9,0.1-1.8,0.2-2.7,0.2c-13.3,0-24-12.5-24-27.9c0-15.4,10.8-27.9,24-27.9
	c0.9,0,1.8,0.1,2.7,0.2V8h-28.3c0,15.4-10.8,27.9-24,27.9c-13.3,0-24-12.5-24-27.9h-30.7c0,15.4-10.8,27.9-24,27.9
	c-13.3,0-24-12.5-24-27.9h-30.7c0,15.4-10.8,27.9-24,27.9c-13.3,0-24-12.5-24-27.9h-30.7c0,15.4-10.8,27.9-24,27.9
	c-13.3,0-24-12.5-24-27.9h-30.7c0,15.4-10.8,27.9-24,27.9c-13.3,0-24-12.5-24-27.9H76.3c0,15.4-10.8,27.9-24,27.9s-24-12.5-24-27.9
	H0v41.5c13.3,0,24,12.5,24,27.9c0,15.4-10.8,27.9-24,27.9v33.5c6.8,0,13.6,3.4,18.4,9.9c8.5,11.8,7.2,29.4-2.9,39.3
	c-4.5,4.4-10,6.6-15.5,6.6v33.5c13.3,0,24,12.5,24,27.9s-10.8,27.9-24,27.9v33.4c13.3,0,24,12.5,24,27.9c0,15.4-10.8,27.9-24,27.9
	v33.4c13.3,0,24,12.5,24,27.9c0,15.4-10.8,27.9-24,27.9V504h28.3c0-15.4,10.8-27.9,24-27.9s24,12.5,24,27.9H107
	c0-15.4,10.8-27.9,24-27.9c13.3,0,24,12.5,24,27.9h30.7c0-15.4,10.8-27.9,24-27.9c13.3,0,24,12.5,24,27.9h30.7
	c0-15.4,10.8-27.9,24-27.9c13.3,0,24,12.5,24,27.9h30.7c0-15.4,10.8-27.9,24-27.9c13.3,0,24,12.5,24,27.9h30.7
	c0-15.4,10.8-27.9,24-27.9c13.3,0,24,12.5,24,27.9h28.3v-41.7C497.3,462.4,496.4,462.5,495.5,462.5z"/>
<path class="st1" d="M512,512h-42.1v-8c0-11-7.7-19.9-17.1-19.9c-9.5,0-17.1,8.9-17.1,19.9v8h-44.4v-8c0-11-7.7-19.9-17.1-19.9
	c-9.5,0-17.1,8.9-17.1,19.9v8h-44.4v-8c0-11-7.7-19.9-17.1-19.9c-9.5,0-17.1,8.9-17.1,19.9v8h-44.4v-8c0-11-7.7-19.9-17.1-19.9
	c-9.5,0-17.1,8.9-17.1,19.9v8h-44.4v-8c0-11-7.7-19.9-17.1-19.9c-9.5,0-17.1,8.9-17.1,19.9v8H76.3v-8c0-11-7.7-19.9-17.1-19.9
	c-9.5,0-17.1,8.9-17.1,19.9v8H0v-57.5h6.9c9.5,0,17.1-8.9,17.1-19.9c0-11-7.7-19.9-17.1-19.9H0v-49.4h6.9c9.5,0,17.1-8.9,17.1-19.9
	c0-11-7.7-19.9-17.1-19.9H0v-49.4h6.9c9.5,0,17.1-8.9,17.1-19.9s-7.7-19.9-17.1-19.9H0v-49.4l6.9,0c0,0,0,0,0,0c4,0,7.9-1.7,11-4.7
	c3.5-3.4,5.6-8.2,6-13.5c0.4-5.3-1-10.5-4-14.5c-3.3-4.5-8-7.1-13.1-7.1l-6.9,0V97.4h6.9c9.5,0,17.1-8.9,17.1-19.9
	c0-11-7.7-19.9-17.1-19.9H0V0h42.1v8c0,11,7.7,19.9,17.1,19.9c9.5,0,17.1-8.9,17.1-19.9V0h44.4v8c0,11,7.7,19.9,17.1,19.9
	c9.5,0,17.1-8.9,17.1-19.9V0h44.4v8c0,11,7.7,19.9,17.1,19.9c9.5,0,17.1-8.9,17.1-19.9V0h44.4v8c0,11,7.7,19.9,17.1,19.9
	c9.5,0,17.1-8.9,17.1-19.9V0h44.4v8c0,11,7.7,19.9,17.1,19.9c9.5,0,17.1-8.9,17.1-19.9V0h44.4v8c0,11,7.7,19.9,17.1,19.9
	c9.5,0,17.1-8.9,17.1-19.9V0H512v58.7l-7.7-1c-0.7-0.1-1.4-0.1-2-0.1c-9.5,0-17.1,8.9-17.1,19.9c0,11,7.7,19.9,17.1,19.9
	c0.6,0,1.2,0,2-0.1l7.7-1V148l-7.7-1c-4.8-0.6-9.4,1-13,4.5c-3.5,3.4-5.6,8.2-6,13.5c-0.4,5.3,1,10.5,4,14.5c3.7,5.1,9.3,7.7,15.1,7
	l7.7-1v51.7l-7.7-1c-0.7-0.1-1.4-0.1-2-0.1c-9.5,0-17.1,8.9-17.1,19.9s7.7,19.9,17.1,19.9c0.6,0,1.2,0,2-0.1l7.7-1v51.7l-7.7-1
	c-0.7-0.1-1.4-0.1-2-0.1c-9.5,0-17.1,8.9-17.1,19.9c0,11,7.7,19.9,17.1,19.9c0.6,0,1.2,0,2-0.1l7.7-1v51.7l-7.7-1
	c-0.7-0.1-1.4-0.1-2-0.1c-9.5,0-17.1,8.9-17.1,19.9c0,11,7.7,19.9,17.1,19.9c0.6,0,1.2,0,2-0.1l7.7-1V512z M482.9,496h15.3v-25.8
	c-15.1-2.4-26.8-17.4-26.8-35.6c0-18.2,11.7-33.2,26.8-35.6v-18.1c-15.1-2.4-26.8-17.4-26.8-35.6c0-18.2,11.7-33.2,26.8-35.6v-18.1
	c-15.1-2.4-26.8-17.4-26.8-35.6s11.7-33.2,26.8-35.6v-18.1c-7.5-1.2-14.5-5.5-19.5-12.5c-5.3-7.3-7.9-16.6-7.2-26.2
	c0.7-9.6,4.6-18.2,10.9-24.4c4.6-4.5,10-7.2,15.8-8.1V113c-15.1-2.4-26.8-17.4-26.8-35.6s11.7-33.2,26.8-35.6V16h-15.3
	c-3.1,16-15.5,27.9-30.1,27.9s-27-12-30.1-27.9h-18.5c-3.1,16-15.5,27.9-30.1,27.9S347.1,32,344,16h-18.5
	c-3.1,16-15.5,27.9-30.1,27.9c-14.7,0-27-12-30.1-27.9h-18.5c-3.1,16-15.5,27.9-30.1,27.9s-27-12-30.1-27.9H168
	c-3.1,16-15.5,27.9-30.1,27.9s-27-12-30.1-27.9H89.3c-3.1,16-15.5,27.9-30.1,27.9S32.2,32,29.1,16H13.8v26.4c13.7,3.6,24,18,24,35
	s-10.3,31.4-24,35v19.3c6.5,1.7,12.4,5.8,16.8,11.9c5.3,7.3,7.9,16.6,7.2,26.2c-0.7,9.6-4.6,18.2-10.9,24.4c-3.8,3.7-8.3,6.3-13,7.5
	V221c13.7,3.6,24,18,24,35s-10.3,31.4-24,35v19.2c13.7,3.6,24,18,24,35s-10.3,31.4-24,35v19.2c13.7,3.6,24,18,24,35
	s-10.3,31.4-24,35V496h15.3c3.1-16,15.5-27.9,30.1-27.9s27,12,30.1,27.9h18.5c3.1-16,15.5-27.9,30.1-27.9s27,12,30.1,27.9h18.5
	c3.1-16,15.5-27.9,30.1-27.9s27,12,30.1,27.9h18.5c3.1-16,15.5-27.9,30.1-27.9c14.7,0,27,12,30.1,27.9H344
	c3.1-16,15.5-27.9,30.1-27.9s27,12,30.1,27.9h18.5c3.1-16,15.5-27.9,30.1-27.9S479.8,480,482.9,496z"/>
<rect x="67.2" y="80.3" class="st2" width="374.8" height="356.9"/>
<path class="st3" d="M94,134.2c-0.3,5.2-0.4,10.5-0.4,15.8c0,126.4,72.5,228.8,161.8,228.8c89.4,0,161.8-102.4,161.8-228.8
	c0-5.3-0.1-10.6-0.4-15.8H94z"/>
<polygon class="st4" points="269.3,255.4 250.7,189.7 209.9,259.5 "/>
<path class="st5" d="M251.1,391c-13.2,0-25.8-2.2-37.1-6.7c-7.1-2.9-10.5-10.9-7.7-18c2.9-7.1,10.9-10.5,18-7.7
	c21.9,8.8,53.1,5.1,79.4-9.5c23.2-12.8,38.5-31.8,42.2-52.1c0.4-2.1,0.7-4.2,1-6.5c0.9-7.6,7.8-13,15.4-12.1
	c7.6,0.9,13,7.8,12.1,15.4c-0.3,2.7-0.7,5.4-1.2,8c-5.1,28.5-25.6,54.6-56,71.5C296.1,385,272.8,391,251.1,391z"/>
<circle class="st6" cx="401.9" cy="170.2" r="64.4"/>
<circle class="st5" cx="393.6" cy="175.8" r="45.7"/>
<circle class="st6" cx="104.8" cy="169.6" r="64.4"/>
<circle class="st5" cx="114.1" cy="168.3" r="45.7"/>
<path class="st5" d="M464,112.7c-3.7,0-7.3-1.5-10.1-4.3C442,95.8,431,90.3,389.4,82.3c-7.5-1.4-12.4-8.7-11-16.2
	c1.4-7.5,8.7-12.4,16.2-11c45.1,8.6,62.2,16,79.5,34.3c5.2,5.6,5,14.3-0.6,19.6C470.8,111.5,467.4,112.7,464,112.7z"/>
<path class="st5" d="M77.9,97.8c-6,0-11.5-3.9-13.3-9.9c-2.2-7.3,2-15,9.4-17.2c44.1-13,62.6-14.2,86.3-5.9
	c7.2,2.5,11,10.4,8.4,17.7s-10.4,11-17.7,8.4c-16.3-5.8-28.6-5.7-69.3,6.3C80.5,97.6,79.2,97.8,77.9,97.8z"/>
</svg>
