<?xml version="1.0" encoding="utf-8"?>
<!-- Generator: Adobe Illustrator 25.0.0, SVG Export Plug-In . SVG Version: 6.00 Build 0)  -->
<svg version="1.1" id="Layer_2_1_" xmlns="http://www.w3.org/2000/svg" xmlns:xlink="http://www.w3.org/1999/xlink" x="0px" y="0px"
	 viewBox="0 0 512 512" style="enable-background:new 0 0 512 512;" xml:space="preserve">
<style type="text/css">
	.st0{fill:#E4D4B6;}
	.st1{fill:#C99071;}
	.st2{fill:#D9816B;}
	.st3{fill:#BED5EC;}
	.st4{fill:#8F9DD1;}
	.st5{fill:#FFFFFF;}
	.st6{fill:#402A32;}
</style>
<path class="st0" d="M490,428.3c-13,0-23.3-10.7-23.3-23.3c0-13,10.7-23.3,23.3-23.3c1,0,1.7,0,2.7,0V353c-1,0-1.7,0-2.7,0
	c-13,0-23.3-10.7-23.3-23.3c0-13,10.7-23.3,23.3-23.3c1,0,1.7,0,2.7,0V278c-1,0-1.7,0-2.7,0c-13,0-23.3-10.7-23.3-23.3
	s10.7-23.3,23.3-23.3c1,0,1.7,0,2.7,0V203c-7.7,1-15.3-2-20.7-8.3c-8.3-10-7-24.7,2.7-33c5-4.3,11.7-6,17.7-5.3V128
	c-1,0-1.7,0-2.7,0c-13,0-23.3-10.7-23.3-23.3c0-13,10.7-23.3,23.3-23.3c1,0,1.7,0,2.7,0v-35h-27.7c0,13-10.7,23.3-23.3,23.3
	c-13,0-23.3-10.7-23.3-23.3h-30c0,13-10.7,23.3-23.3,23.3c-13,0-23.3-10.7-23.3-23.3h-30c0,13-10.7,23.3-23.3,23.3
	c-13,0-23.3-10.7-23.3-23.3h-30c0,13-10.7,23.3-23.3,23.3c-13,0-23.3-10.7-23.3-23.3h-30c0,13-10.7,23.3-23.3,23.3
	c-13,0-23.3-10.7-23.3-23.3h-30c0,13-10.7,23.3-23.3,23.3S34.7,59,34.7,46.3H6v35c13,0,23.3,10.7,23.3,23.3
	c0,13-10.7,23.3-23.3,23.3v28.3c6.7,0,13.3,2.7,18,8.3c8.3,10,7,24.7-2.7,33c-4.7,3.7-10,5.3-15.3,5.3v28c13,0,23.3,10.7,23.3,23.3
	c0,12.7-10.7,23.3-23.3,23.3v28.7c13,0,23.3,10.7,23.3,23.3c0,13-10.7,23.3-23.3,23.3v28c13,0,23.3,10.7,23.3,23.3
	c0,13-10.7,23.3-23.3,23.3V463h27.7c0-13,10.7-23.3,23.3-23.3s23.3,10.7,23.3,23.3h30c0-13,10.7-23.3,23.3-23.3
	c13,0,23.3,10.7,23.3,23.3h30c0-13,10.7-23.3,23.3-23.3c13,0,23.3,10.7,23.3,23.3h30c0-13,10.7-23.3,23.3-23.3
	c13,0,23.3,10.7,23.3,23.3h30c0-13,10.7-23.3,23.3-23.3c13,0,23.3,10.7,23.3,23.3h30c0-13,10.7-23.3,23.3-23.3
	c13,0,23.3,10.7,23.3,23.3h27.7v-35C491.7,428,490.7,428.3,490,428.3z"/>
<path class="st1" d="M506,469.7h-41V463c0-9.3-7.7-16.7-16.7-16.7c-9.3,0-16.7,7.7-16.7,16.7v6.7h-43.3V463
	c0-9.3-7.7-16.7-16.7-16.7c-9.3,0-16.7,7.7-16.7,16.7v6.7h-43.3V463c0-9.3-7.7-16.7-16.7-16.7c-9.3,0-16.7,7.7-16.7,16.7v6.7H235
	V463c0-9.3-7.7-16.7-16.7-16.7c-9.3,0-16.7,7.7-16.7,16.7v6.7h-43.3V463c0-9.3-7.7-16.7-16.7-16.7c-9.3,0-16.7,7.7-16.7,16.7v6.7
	H81.7V463c0-9.3-7.7-16.7-16.7-16.7c-9.3,0-16.7,7.7-16.7,16.7v6.7H6v-48.3h6.7c9.3,0,16.7-7.7,16.7-16.7c0-9.3-7.7-16.7-16.7-16.7
	H6v-41.7h6.7c9.3,0,16.7-7.7,16.7-16.7c0-9.3-7.7-16.7-16.7-16.7H6v-41.7h6.7c9.3,0,16.7-7.7,16.7-16.7c0-9.3-7.7-16.7-16.7-16.7H6
	v-41.7h6.7c4,0,7.7-1.3,10.7-4c3.3-3,5.7-7,6-11.3c0.3-4.3-1-8.7-4-12.3c-3-3.7-7.7-5.7-12.7-5.7H6v-41.7h6.7
	c9.3,0,16.7-7.7,16.7-16.7c0-9.3-7.7-16.7-16.7-16.7H6V39.7h41v6.7C47,55.7,54.7,63,63.7,63c9.3,0,16.7-7.7,16.7-16.7v-6.7h43.3v6.7
	c0,9.3,7.7,16.7,16.7,16.7c9.3,0,16.7-7.7,16.7-16.7v-6.7h43.3v6.7c0,9.3,7.7,16.7,16.7,16.7c9.3,0,16.7-7.7,16.7-16.7v-6.7H277v6.7
	c0,9.3,7.7,16.7,16.7,16.7c9.3,0,16.7-7.7,16.7-16.7v-6.7h43.3v6.7c0,9.3,7.7,16.7,16.7,16.7c9.3,0,16.7-7.7,16.7-16.7v-6.7h43.3
	v6.7c0,9.3,7.7,16.7,16.7,16.7c9.3,0,16.7-7.7,16.7-16.7v-6.7H506V89l-7.3-1c-0.7,0-1.3,0-2,0c-9.3,0-16.7,7.7-16.7,16.7
	c0,9.3,7.7,16.7,16.7,16.7c0.7,0,1.3,0,2,0l7.3-1v43.3l-7.3-1c-4.7-0.7-9,0.7-12.7,3.7c-3.3,3-5.7,7-6,11.3c-0.3,4.3,1,8.7,4,12.3
	c3.7,4.3,9,6.3,14.7,6l7.3-1v43.3l-7.3-1c-0.7,0-1.3,0-2,0c-9.3,0-16.7,7.7-16.7,16.7c0,9.3,7.7,16.7,16.7,16.7c0.7,0,1.3,0,2,0
	l7.3-1V313l-7.3-1c-0.7,0-1.3,0-2,0c-9.3,0-16.7,7.7-16.7,16.7c0,9.3,7.7,16.7,16.7,16.7c0.7,0,1.3,0,2,0l7.3-1v43.3l-7.3-1
	c-0.7,0-1.3,0-2,0c-9.3,0-16.7,7.7-16.7,16.7c0,9.3,7.7,16.7,16.7,16.7c0.7,0,1.3,0,2,0l7.3-1V469.7L506,469.7z M477.7,456.3h15
	v-21.7c-14.7-2-26-14.7-26-30c0-15.3,11.3-28,26-30v-15c-14.7-2-26-14.7-26-30c0-15.3,11.3-28,26-30v-15.3c-14.7-2-26-14.7-26-30
	c0-15.3,11.3-28,26-30v-14.7c-7.3-1-14-4.7-19-10.3c-5.3-6-7.7-14-7-22c0.7-8,4.3-15.3,10.7-20.7c4.3-3.7,9.7-6,15.3-6.7v-15.3
	c-14.7-2-26-14.7-26-30s11.3-28,26-30V53h-15c-3,13.3-15,23.3-29.3,23.3S422,66.3,419,53h-18c-3,13.3-15,23.3-29.3,23.3
	c-14.3,0-26.3-10-29.3-23.3h-18c-3,13.3-15,23.3-29.3,23.3c-14.3,0-26.3-10-29.3-23.3h-18c-3,13.3-15,23.3-29.3,23.3
	C204,76.3,192,66.3,189,53h-18c-3,13.3-15,23.3-29.3,23.3s-26.3-10-29.3-23.3h-18c-3,13.3-15,23.3-29.3,23.3S38.7,66.3,35.7,53H19.3
	v22.3c13.3,3,23.3,15,23.3,29.3S32.7,131,19.3,134v16.3c6.3,1.3,12,5,16.3,10c5.3,6,7.7,14,7,22c-0.7,8-4.3,15.3-10.7,20.7
	c-3.7,3-8,5.3-12.7,6.3v16.3c13.3,3,23.3,15,23.3,29.3c0,14.3-10,26.3-23.3,29.3v16.3c13.3,3,23.3,15,23.3,29.3
	c0,14.3-10,26.3-23.3,29.3v16.3c13.3,3,23.3,15,23.3,29.3c0,14.3-10,26.3-23.3,29.3v22.3h15c3-13.3,15-23.3,29.3-23.3
	s26.3,10,29.3,23.3h18c3-13.3,15-23.3,29.3-23.3s26.3,10,29.3,23.3h18c3-13.3,15-23.3,29.3-23.3s26.3,10,29.3,23.3h18
	c3-13.3,15-23.3,29.3-23.3c14.3,0,26.3,10,29.3,23.3h18c3-13.3,15-23.3,29.3-23.3c14.3,0,26.3,10,29.3,23.3h18
	c3-13.3,15-23.3,29.3-23.3S474.7,443,477.7,456.3z"/>
<path class="st2" d="M437.7,107h-366v299.7h366V107z"/>
<path class="st3" d="M97.7,152.3c-0.3,4.3-0.3,9-0.3,13.3c0,106,70.7,192.3,158,192.3s158-86,158-192.3c0-4.3,0-9-0.3-13.3H97.7z"/>
<path class="st4" d="M269,265l-18.3-55L211,268.7L269,265z"/>
<path class="st5" d="M110.3,219c34.6,0,62.7-28.1,62.7-62.7s-28.1-62.7-62.7-62.7s-62.7,28.1-62.7,62.7S75.7,219,110.3,219z"/>
<path class="st6" d="M119.3,199.3c24.5,0,44.3-19.8,44.3-44.3s-19.8-44.3-44.3-44.3S75,130.5,75,155S94.8,199.3,119.3,199.3z"/>
<path class="st5" d="M398.7,219.7c34.6,0,62.7-28.1,62.7-62.7s-28.1-62.7-62.7-62.7S336,122.4,336,157S364.1,219.7,398.7,219.7z"/>
<path class="st6" d="M390.7,206.7c24.5,0,44.3-19.8,44.3-44.3S415.2,118,390.7,118s-44.3,19.8-44.3,44.3S366.2,206.7,390.7,206.7z"
	/>
<path class="st6" d="M84.3,86.7c-5.7,0-11-3.7-13-9.7c-2-7,2-14.7,9-16.7C123,47.7,141,46.7,164,54.7c7,2.3,10.7,10,8.3,17
	c-2.3,7-10,10.7-17,8.3c-16-5.7-27.7-5.3-67.3,6C87,86.7,85.7,86.7,84.3,86.7z"/>
<path class="st6" d="M459,101.3c-3.7,0-7-1.3-9.7-4.3c-11.7-12.3-22.3-17.7-62.7-25.3c-7.3-1.3-12-8.3-10.7-15.7s8.3-12,15.7-10.7
	c43.7,8.3,60.3,15.7,77,33.3c5,5.3,5,14-0.7,19C465.7,100,462.3,101.3,459,101.3z"/>
<path class="st6" d="M252.3,371.3c-12.7,0-25-2-36-6.7c-7-2.7-10.3-10.7-7.3-17.3c2.7-7,10.7-10.3,17.3-7.3c21.3,8.7,51.3,5,77-9.3
	c22.3-12.3,37.3-31,41-50.7c0.3-2,0.7-4,1-6.3c1-7.3,7.7-12.7,15-11.7c7.3,1,12.7,7.7,11.7,15c-0.3,2.7-0.7,5.3-1,7.7
	c-5,27.7-24.7,53-54.3,69.3C296,365.3,273.3,371.3,252.3,371.3z"/>
</svg>
