<?xml version="1.0" encoding="utf-8"?>
<!-- Generator: Adobe Illustrator 25.0.0, SVG Export Plug-In . SVG Version: 6.00 Build 0)  -->
<svg version="1.1" xmlns="http://www.w3.org/2000/svg" xmlns:xlink="http://www.w3.org/1999/xlink" x="0px" y="0px"
	 viewBox="0 0 700 200" style="enable-background:new 0 0 700 200;" xml:space="preserve">
<style type="text/css">
	.st0{display:none;}
	.st1{display:inline;fill:#333333;}
	.st2{fill:#E4D4B6;}
	.st3{fill:#C99071;}
	.st4{fill:#D9816B;}
	.st5{fill:#BED5EC;}
	.st6{fill:#8F9DD1;}
	.st7{fill:#402A32;}
	.st8{fill:#FFFFFF;}
	.st9{font-family:'Courier';}
	.st10{font-size:94.7965px;}
</style>
<g id="Layer_13" class="st0">
	<rect class="st1" width="500" height="500"/>
</g>
<g id="frame">
	<path class="st2" d="M148.7,142.2c-3.2,0-5.8-2.6-5.8-5.8c0-3.2,2.6-5.8,5.8-5.8c0.2,0,0.4,0,0.7,0v-7.1c-0.2,0-0.4,0-0.7,0
		c-3.2,0-5.8-2.6-5.8-5.8c0-3.2,2.6-5.8,5.8-5.8c0.2,0,0.4,0,0.7,0v-7.1c-0.2,0-0.4,0-0.7,0c-3.2,0-5.8-2.6-5.8-5.8s2.6-5.8,5.8-5.8
		c0.2,0,0.4,0,0.7,0v-7.1c-1.9,0.2-3.8-0.5-5.1-2c-2.1-2.5-1.8-6.1,0.7-8.2c1.3-1.1,2.9-1.5,4.4-1.3v-7.1c-0.2,0-0.4,0-0.7,0
		c-3.2,0-5.8-2.6-5.8-5.8c0-3.2,2.6-5.8,5.8-5.8c0.2,0,0.4,0,0.7,0v-8.7h-6.9c0,3.2-2.6,5.8-5.8,5.8c-3.2,0-5.8-2.6-5.8-5.8h-7.5
		c0,3.2-2.6,5.8-5.8,5.8c-3.2,0-5.8-2.6-5.8-5.8h-7.5c0,3.2-2.6,5.8-5.8,5.8c-3.2,0-5.8-2.6-5.8-5.8h-7.5c0,3.2-2.6,5.8-5.8,5.8
		c-3.2,0-5.8-2.6-5.8-5.8h-7.5c0,3.2-2.6,5.8-5.8,5.8c-3.2,0-5.8-2.6-5.8-5.8h-7.5c0,3.2-2.6,5.8-5.8,5.8s-5.8-2.6-5.8-5.8h-6.9v8.7
		c3.2,0,5.8,2.6,5.8,5.8c0,3.2-2.6,5.8-5.8,5.8v7c1.7,0,3.3,0.7,4.5,2.1c2.1,2.5,1.8,6.1-0.7,8.2c-1.1,0.9-2.4,1.4-3.8,1.4v7
		c3.2,0,5.8,2.6,5.8,5.8s-2.6,5.8-5.8,5.8v7c3.2,0,5.8,2.6,5.8,5.8c0,3.2-2.6,5.8-5.8,5.8v7c3.2,0,5.8,2.6,5.8,5.8
		c0,3.2-2.6,5.8-5.8,5.8v8.7h6.9c0-3.2,2.6-5.8,5.8-5.8s5.8,2.6,5.8,5.8h7.5c0-3.2,2.6-5.8,5.8-5.8c3.2,0,5.8,2.6,5.8,5.8h7.5
		c0-3.2,2.6-5.8,5.8-5.8c3.2,0,5.8,2.6,5.8,5.8h7.5c0-3.2,2.6-5.8,5.8-5.8c3.2,0,5.8,2.6,5.8,5.8h7.5c0-3.2,2.6-5.8,5.8-5.8
		c3.2,0,5.8,2.6,5.8,5.8h7.5c0-3.2,2.6-5.8,5.8-5.8c3.2,0,5.8,2.6,5.8,5.8h6.9v-8.7C149.1,142.2,148.9,142.2,148.7,142.2z"/>
	<path class="st3" d="M152.7,152.5h-10.2v-1.7c0-2.3-1.9-4.2-4.2-4.2c-2.3,0-4.2,1.9-4.2,4.2v1.7h-10.8v-1.7c0-2.3-1.9-4.2-4.2-4.2
		c-2.3,0-4.2,1.9-4.2,4.2v1.7h-10.8v-1.7c0-2.3-1.9-4.2-4.2-4.2c-2.3,0-4.2,1.9-4.2,4.2v1.7H85.1v-1.7c0-2.3-1.9-4.2-4.2-4.2
		c-2.3,0-4.2,1.9-4.2,4.2v1.7H65.9v-1.7c0-2.3-1.9-4.2-4.2-4.2c-2.3,0-4.2,1.9-4.2,4.2v1.7H46.8v-1.7c0-2.3-1.9-4.2-4.2-4.2
		c-2.3,0-4.2,1.9-4.2,4.2v1.7H28.2v-12h1.7c2.3,0,4.2-1.9,4.2-4.2s-1.9-4.2-4.2-4.2h-1.7v-10.3h1.7c2.3,0,4.2-1.9,4.2-4.2
		c0-2.3-1.9-4.2-4.2-4.2h-1.7v-10.3h1.7c2.3,0,4.2-1.9,4.2-4.2s-1.9-4.2-4.2-4.2h-1.7V84.5l1.7,0c0,0,0,0,0,0c1,0,1.9-0.3,2.7-1
		c0.9-0.7,1.4-1.7,1.5-2.8c0.1-1.1-0.2-2.2-1-3c-0.8-0.9-2-1.5-3.2-1.5l-1.7,0V65.8h1.7c2.3,0,4.2-1.9,4.2-4.2
		c0-2.3-1.9-4.2-4.2-4.2h-1.7v-12h10.2v1.7c0,2.3,1.9,4.2,4.2,4.2c2.3,0,4.2-1.9,4.2-4.2v-1.7h10.8v1.7c0,2.3,1.9,4.2,4.2,4.2
		c2.3,0,4.2-1.9,4.2-4.2v-1.7h10.8v1.7c0,2.3,1.9,4.2,4.2,4.2c2.3,0,4.2-1.9,4.2-4.2v-1.7h10.8v1.7c0,2.3,1.9,4.2,4.2,4.2
		c2.3,0,4.2-1.9,4.2-4.2v-1.7H115v1.7c0,2.3,1.9,4.2,4.2,4.2c2.3,0,4.2-1.9,4.2-4.2v-1.7h10.8v1.7c0,2.3,1.9,4.2,4.2,4.2
		c2.3,0,4.2-1.9,4.2-4.2v-1.7h10.2v12.3l-1.9-0.2c-0.2,0-0.3,0-0.5,0c-2.3,0-4.2,1.9-4.2,4.2c0,2.3,1.9,4.2,4.2,4.2
		c0.1,0,0.3,0,0.5,0l1.9-0.2v10.8l-1.9-0.2c-1.2-0.1-2.3,0.2-3.2,0.9c-0.9,0.7-1.4,1.7-1.5,2.8c-0.1,1.1,0.2,2.2,1,3
		c0.9,1.1,2.3,1.6,3.7,1.5l1.9-0.2v10.8l-1.9-0.2c-0.2,0-0.3,0-0.5,0c-2.3,0-4.2,1.9-4.2,4.2s1.9,4.2,4.2,4.2c0.1,0,0.3,0,0.5,0
		l1.9-0.2v10.8l-1.9-0.2c-0.2,0-0.3,0-0.5,0c-2.3,0-4.2,1.9-4.2,4.2c0,2.3,1.9,4.2,4.2,4.2c0.1,0,0.3,0,0.5,0l1.9-0.2v10.8l-1.9-0.2
		c-0.2,0-0.3,0-0.5,0c-2.3,0-4.2,1.9-4.2,4.2s1.9,4.2,4.2,4.2c0.1,0,0.3,0,0.5,0l1.9-0.2V152.5z M145.6,149.2h3.7v-5.4
		c-3.7-0.5-6.5-3.6-6.5-7.4c0-3.8,2.8-7,6.5-7.4v-3.8c-3.7-0.5-6.5-3.6-6.5-7.4s2.8-7,6.5-7.4v-3.8c-3.7-0.5-6.5-3.6-6.5-7.4
		s2.8-7,6.5-7.4v-3.8c-1.8-0.2-3.5-1.2-4.7-2.6c-1.3-1.5-1.9-3.5-1.7-5.5c0.2-2,1.1-3.8,2.6-5.1c1.1-0.9,2.4-1.5,3.8-1.7v-3.8
		c-3.7-0.5-6.5-3.6-6.5-7.4s2.8-7,6.5-7.4v-5.4h-3.7c-0.8,3.3-3.8,5.8-7.3,5.8c-3.6,0-6.6-2.5-7.3-5.8h-4.5
		c-0.8,3.3-3.8,5.8-7.3,5.8c-3.6,0-6.6-2.5-7.3-5.8h-4.5c-0.8,3.3-3.8,5.8-7.3,5.8c-3.6,0-6.6-2.5-7.3-5.8h-4.5
		c-0.8,3.3-3.8,5.8-7.3,5.8c-3.6,0-6.6-2.5-7.3-5.8h-4.5c-0.8,3.3-3.8,5.8-7.3,5.8c-3.6,0-6.6-2.5-7.3-5.8h-4.5
		c-0.8,3.3-3.8,5.8-7.3,5.8c-3.6,0-6.6-2.5-7.3-5.8h-3.7v5.5c3.3,0.8,5.8,3.8,5.8,7.3c0,3.6-2.5,6.6-5.8,7.3v4
		c1.6,0.4,3,1.2,4.1,2.5c1.3,1.5,1.9,3.5,1.7,5.5c-0.2,2-1.1,3.8-2.6,5.1c-0.9,0.8-2,1.3-3.2,1.6v4c3.3,0.8,5.8,3.8,5.8,7.3
		s-2.5,6.6-5.8,7.3v4c3.3,0.8,5.8,3.8,5.8,7.3s-2.5,6.6-5.8,7.3v4c3.3,0.8,5.8,3.8,5.8,7.3s-2.5,6.6-5.8,7.3v5.5h3.7
		c0.8-3.3,3.8-5.8,7.3-5.8c3.6,0,6.6,2.5,7.3,5.8h4.5c0.8-3.3,3.8-5.8,7.3-5.8c3.6,0,6.6,2.5,7.3,5.8h4.5c0.8-3.3,3.8-5.8,7.3-5.8
		c3.6,0,6.6,2.5,7.3,5.8h4.5c0.8-3.3,3.8-5.8,7.3-5.8c3.6,0,6.6,2.5,7.3,5.8h4.5c0.8-3.3,3.8-5.8,7.3-5.8c3.6,0,6.6,2.5,7.3,5.8h4.5
		c0.8-3.3,3.8-5.8,7.3-5.8C141.9,143.3,144.9,145.8,145.6,149.2z"/>
</g>
<g id="red">
	<rect x="44.6" y="62.3" class="st4" width="91.1" height="74.6"/>
</g>
<g id="blue">
	<path class="st5" d="M51.1,73.5C51,74.6,51,75.7,51,76.9c0,26.4,17.6,47.8,39.3,47.8s39.3-21.4,39.3-47.8c0-1.1,0-2.2-0.1-3.3H51.1
		z"/>
</g>
<g id="nose">
	<polygon class="st6" points="93.7,98.9 89.2,85.1 79.3,99.7 	"/>
</g>
<g id="mouth">
	<path class="st7" d="M89.6,128c-3.2,0-6.2-0.5-9-1.6c-1.7-0.7-2.5-2.6-1.9-4.3c0.7-1.7,2.6-2.5,4.3-1.9c5.3,2.1,12.8,1.2,19.2-2.3
		c5.6-3.1,9.3-7.7,10.2-12.6c0.1-0.5,0.2-1,0.2-1.6c0.2-1.8,1.9-3.1,3.7-2.9c1.8,0.2,3.1,1.9,2.9,3.7c-0.1,0.7-0.2,1.3-0.3,1.9
		c-1.2,6.9-6.2,13.2-13.5,17.3C100.4,126.6,94.8,128,89.6,128z"/>
</g>
<g id="Reye_x5F_white">
	<circle class="st8" cx="126" cy="74.7" r="15.6"/>
</g>
<g id="Reye_x5F_pupil">
	<circle class="st7" cx="124" cy="76" r="11.1"/>
</g>
<g id="Leye_x5F_white">
	<circle class="st8" cx="54.2" cy="74.5" r="15.6"/>
</g>
<g id="Leye_x5F_pupil">
	<circle class="st7" cx="56.5" cy="74.2" r="11.1"/>
</g>
<g id="Rbrow">
	<path class="st7" d="M141,60.8c-0.9,0-1.8-0.4-2.4-1c-2.9-3-5.5-4.4-15.6-6.3c-1.8-0.3-3-2.1-2.7-3.9c0.3-1.8,2.1-3,3.9-2.7
		c10.9,2.1,15,3.9,19.2,8.3c1.3,1.3,1.2,3.5-0.1,4.7C142.6,60.5,141.8,60.8,141,60.8z"/>
</g>
<g id="Lbrow">
	<path class="st7" d="M47.7,57.2c-1.4,0-2.8-0.9-3.2-2.4C44,53,45,51.2,46.8,50.6c10.6-3.1,15.1-3.4,20.9-1.4c1.7,0.6,2.7,2.5,2,4.3
		c-0.6,1.7-2.5,2.7-4.3,2c-3.9-1.4-6.9-1.4-16.7,1.5C48.4,57.1,48,57.2,47.7,57.2z"/>
</g>
<g id="stampy_x5F_ai">
	<text transform="matrix(1 0 0 1 162.3438 132.7925)" class="st4 st9 st10">stampy.ai</text>
</g>
</svg>
